<svg id="Group" xmlns="http://www.w3.org/2000/svg" width="18" height="20" viewBox="0 0 18 20">
  <path id="Shape" d="M15.3.321l-.642,16a1.09,1.09,0,0,1-1.1,1.011H2.435a1.089,1.089,0,0,1-1.1-1.011L.7.321A.342.342,0,0,0,.334,0,.339.339,0,0,0,0,.346l.642,16A1.772,1.772,0,0,0,2.435,18h11.13a1.773,1.773,0,0,0,1.792-1.652L16,.346a.348.348,0,0,0-.7-.026Z" transform="translate(1 2)" fill="#448aff"/>
  <path id="Shape-2" data-name="Shape" d="M0,.333V11.667c0,.184.224.333.5.333s.5-.149.5-.333V.333C1,.149.776,0,.5,0S0,.149,0,.333Z" transform="translate(9 5)" fill="#448aff"/>
  <path id="Shape-3" data-name="Shape" d="M0,.343.333,11.676A.333.333,0,1,0,1,11.657L.667.324A.333.333,0,1,0,0,.343Z" transform="translate(5 5)" fill="#448aff"/>
  <path id="Shape-4" data-name="Shape" d="M.333.324,0,11.657a.333.333,0,1,0,.666.02L1,.343A.333.333,0,1,0,.333.324Z" transform="translate(12 5)" fill="#448aff"/>
  <path id="Shape-5" data-name="Shape" d="M.346,1H17.654C17.845,1,18,.776,18,.5s-.155-.5-.346-.5H.346C.155,0,0,.224,0,.5S.155,1,.346,1Z" transform="translate(0 2)" fill="#448aff"/>
  <path id="Shape-6" data-name="Shape" d="M.68,2l.392-.84A1.114,1.114,0,0,1,1.987.628H6.013a1.109,1.109,0,0,1,.916.532L7.32,2,8,1.767,7.608.927A1.843,1.843,0,0,0,6.013,0H1.987a1.848,1.848,0,0,0-1.6.927L0,1.767Z" transform="translate(5)" fill="#448aff"/>
</svg>
