<svg xmlns="http://www.w3.org/2000/svg" width="17.144" height="31.711" viewBox="0 0 17.144 31.711">
  <g id="facebook" opacity="0.54">
    <path id="Shape" d="M16.5.007,12.387,0C7.767,0,4.781,3.063,4.781,7.8v3.6H.647A.647.647,0,0,0,0,12.049v5.213a.647.647,0,0,0,.647.647H4.781V31.064a.646.646,0,0,0,.647.647h5.394a.647.647,0,0,0,.647-.647V17.909H16.3a.646.646,0,0,0,.647-.647l0-5.213A.647.647,0,0,0,16.3,11.4H11.469V8.352c0-1.466.349-2.21,2.259-2.21H16.5a.647.647,0,0,0,.646-.647V.653A.647.647,0,0,0,16.5.007Z"/>
  </g>
</svg>
