<svg xmlns="http://www.w3.org/2000/svg" width="34.823" height="34.823" viewBox="0 0 34.823 34.823">
  <g id="instagram" transform="translate(1.5 1.5)" opacity="0.54">
    <g id="_002-instagram-logo" data-name="002-instagram-logo">
      <path id="Shape" d="M8.782,31.823A8.792,8.792,0,0,1,0,23.041V8.782A8.792,8.792,0,0,1,8.782,0H23.041a8.792,8.792,0,0,1,8.782,8.782V23.041a8.792,8.792,0,0,1-8.782,8.782Z" fill="none" stroke="#000" stroke-width="3"/>
      <path id="Shape-2" data-name="Shape" d="M0,8.2a8.2,8.2,0,1,1,8.2,8.2A8.209,8.209,0,0,1,0,8.2Z" transform="translate(7.712 7.712)" fill="none" stroke="#000" stroke-width="3"/>
      <path id="Shape-3" data-name="Shape" d="M2.071,0A2.07,2.07,0,0,0,.608,3.535a2.07,2.07,0,0,0,2.927,0A2.071,2.071,0,0,0,2.071,0Z" transform="translate(22.385 4.318)"/>
    </g>
  </g>
</svg>
