<svg xmlns="http://www.w3.org/2000/svg" width="32" height="25.993" viewBox="0 0 32 25.993">
  <g id="twitter" opacity="0.54">
    <path id="Shape" d="M32,3.075a13.109,13.109,0,0,1-3.769,1.034A6.592,6.592,0,0,0,31.116.48a13.234,13.234,0,0,1-4.171,1.594A6.57,6.57,0,0,0,15.759,8.059,18.637,18.637,0,0,1,2.23,1.2,6.572,6.572,0,0,0,4.261,9.962a6.565,6.565,0,0,1-2.973-.824V9.22a6.571,6.571,0,0,0,5.265,6.437,6.649,6.649,0,0,1-1.73.23,6.3,6.3,0,0,1-1.236-.122,6.568,6.568,0,0,0,6.131,4.559A13.171,13.171,0,0,1,1.566,23.13,13.951,13.951,0,0,1,0,23.04a18.556,18.556,0,0,0,10.062,2.953c12.076,0,18.676-10,18.676-18.676l-.022-.85A13.109,13.109,0,0,0,32,3.075Z"/>
  </g>
</svg>
