<svg xmlns="http://www.w3.org/2000/svg" width="20.781" height="17.392" viewBox="0 0 20.781 17.392">
  <g id="Group" transform="translate(0.5 0.368)">
    <path id="Shape" d="M3.567,16.345A1.147,1.147,0,0,1,2.423,15.31l-.8-8.044H1.034A1.035,1.035,0,0,1,0,6.232V4.315A1.035,1.035,0,0,1,1.034,3.281H4.308a.318.318,0,0,1,.057-.07L8.108.069a.3.3,0,0,1,.385.459L5.214,3.281h9.354L11.287.528a.3.3,0,0,1,.385-.459l3.744,3.142a.315.315,0,0,1,.056.069h3.275a1.036,1.036,0,0,1,1.034,1.035V6.233a1.035,1.035,0,0,1-1.034,1.033H18.16l-.8,8.044a1.147,1.147,0,0,1-1.145,1.035Z" transform="translate(0 0.18)" fill="none" stroke="#000" stroke-width="1"/>
    <path id="Shape-2" data-name="Shape" d="M.3,4.945a.3.3,0,0,0,.3-.3V.3A.3.3,0,1,0,0,.3V4.645A.3.3,0,0,0,.3,4.945Z" transform="translate(5.248 9.129)" fill="none" stroke="#000" stroke-width="1"/>
    <path id="Shape-3" data-name="Shape" d="M.3,4.945a.3.3,0,0,0,.3-.3V.3A.3.3,0,0,0,0,.3V4.645A.3.3,0,0,0,.3,4.945Z" transform="translate(8.143 9.129)" fill="none" stroke="#000" stroke-width="1"/>
    <path id="Shape-4" data-name="Shape" d="M.3,4.945a.3.3,0,0,0,.3-.3V.3A.3.3,0,1,0,0,.3V4.645A.3.3,0,0,0,.3,4.945Z" transform="translate(11.038 9.129)" fill="none" stroke="#000" stroke-width="1"/>
    <path id="Shape-5" data-name="Shape" d="M.3,4.945a.3.3,0,0,0,.3-.3V.3A.3.3,0,0,0,0,.3V4.645A.3.3,0,0,0,.3,4.945Z" transform="translate(13.933 9.129)" fill="none" stroke="#000" stroke-width="1"/>
  </g>
</svg>
